<svg width="23" height="25" viewBox="0 0 23 25" fill="none" xmlns="http://www.w3.org/2000/svg">
<path d="M21.0539 19.0934C21.0539 19.4684 20.9773 19.8538 20.8143 20.2288C20.6514 20.6038 20.4406 20.958 20.1627 21.2913C19.6931 21.8538 19.1756 22.2601 18.591 22.5205C18.016 22.7809 17.3931 22.9163 16.7223 22.9163C15.7448 22.9163 14.7002 22.6663 13.5981 22.1559C12.496 21.6455 11.3939 20.958 10.3014 20.0934C9.19935 19.2184 8.15477 18.2497 7.1581 17.1768C6.17102 16.0934 5.27977 14.958 4.48435 13.7705C3.69852 12.583 3.06602 11.3955 2.60602 10.2184C2.14602 9.03092 1.91602 7.89551 1.91602 6.81217C1.91602 6.10384 2.03102 5.42676 2.26102 4.80176C2.49102 4.16634 2.85518 3.58301 3.3631 3.06217C3.97643 2.40592 4.64727 2.08301 5.35643 2.08301C5.62477 2.08301 5.8931 2.14551 6.13268 2.27051C6.38185 2.39551 6.60227 2.58301 6.77477 2.85384L8.9981 6.26009C9.1706 6.52051 9.29518 6.76009 9.38143 6.98926C9.46768 7.20801 9.5156 7.42676 9.5156 7.62467C9.5156 7.87467 9.44852 8.12467 9.31435 8.36426C9.18977 8.60384 9.00768 8.85384 8.77768 9.10384L8.04935 9.92676C7.94393 10.0413 7.89602 10.1768 7.89602 10.3434C7.89602 10.4268 7.9056 10.4997 7.92477 10.583C7.95352 10.6663 7.98227 10.7288 8.00143 10.7913C8.17393 11.1351 8.47102 11.583 8.89268 12.1247C9.32393 12.6663 9.78393 13.2184 10.2823 13.7705C10.7998 14.3226 11.2981 14.833 11.806 15.3018C12.3043 15.7601 12.7164 16.0726 13.0423 16.2601C13.0902 16.2809 13.1477 16.3122 13.2148 16.3434C13.2914 16.3747 13.3681 16.3851 13.4543 16.3851C13.6173 16.3851 13.7418 16.3226 13.8473 16.208L14.5756 15.4268C14.8152 15.1663 15.0452 14.9684 15.2656 14.8434C15.486 14.6976 15.7064 14.6247 15.946 14.6247C16.1281 14.6247 16.3198 14.6663 16.5306 14.7601C16.7414 14.8538 16.9619 14.9893 17.2014 15.1663L20.3735 17.6143C20.6227 17.8018 20.7952 18.0205 20.9006 18.2809C20.9964 18.5413 21.0539 18.8018 21.0539 19.0934Z" fill="#B20909" stroke="#B20909" stroke-width="1.5" stroke-miterlimit="10"/>
<path d="M17.7292 9.37435C17.7292 8.74935 17.2787 7.79102 16.6079 7.00977C15.9946 6.29102 15.18 5.72852 14.375 5.72852" stroke="#B20909" stroke-width="1.5" stroke-linecap="round" stroke-linejoin="round"/>
<path d="M21.0833 9.37468C21.0833 5.34342 18.0838 2.08301 14.375 2.08301" stroke="#B20909" stroke-width="1.5" stroke-linecap="round" stroke-linejoin="round"/>
</svg>
