<svg width="25" height="25" viewBox="0 0 25 25" fill="none" xmlns="http://www.w3.org/2000/svg">
<path d="M7.29167 12.5C3.125 12.5 3.125 14.3646 3.125 16.6667V17.7083C3.125 20.5833 3.125 22.9167 8.33333 22.9167H16.6667C20.8333 22.9167 21.875 20.5833 21.875 17.7083V16.6667C21.875 14.3646 21.875 12.5 17.7083 12.5C16.6667 12.5 16.375 12.7188 15.8333 13.125L14.7708 14.25C13.5417 15.5625 11.4583 15.5625 10.2188 14.25L9.16667 13.125C8.625 12.7188 8.33333 12.5 7.29167 12.5Z" stroke="#B20909" stroke-width="1.5" stroke-miterlimit="10" stroke-linecap="round" stroke-linejoin="round"/>
<path d="M19.7923 12.4997V6.24967C19.7923 3.94759 19.7923 2.08301 15.6257 2.08301H9.37565C5.20898 2.08301 5.20898 3.94759 5.20898 6.24967V12.4997" stroke="#B20909" stroke-width="1.5" stroke-miterlimit="10" stroke-linecap="round" stroke-linejoin="round"/>
<path d="M10.9902 9.61426H14.459" stroke="#B20909" stroke-width="1.5" stroke-linecap="round" stroke-linejoin="round"/>
<path d="M10.125 6.48926H15.3333" stroke="#B20909" stroke-width="1.5" stroke-linecap="round" stroke-linejoin="round"/>
</svg>
