<svg width="30" height="30" viewBox="0 0 30 30" fill="none" xmlns="http://www.w3.org/2000/svg">
<g clip-path="url(#clip0_4048_1963)">
<path d="M12.5 16.25C15.2614 16.25 17.5 14.0114 17.5 11.25C17.5 8.48858 15.2614 6.25 12.5 6.25C9.73858 6.25 7.5 8.48858 7.5 11.25C7.5 14.0114 9.73858 16.25 12.5 16.25Z" fill="white"/>
<path d="M20.4875 19.45C18.3875 18.375 15.6625 17.5 12.5 17.5C9.3375 17.5 6.6125 18.375 4.5125 19.45C3.2625 20.0875 2.5 21.375 2.5 22.775V26.25H22.5V22.775C22.5 21.375 21.7375 20.0875 20.4875 19.45Z" fill="white"/>
<path d="M25.0629 3.0125L23.3004 1.25C18.9129 5.6375 18.9129 12.7625 23.3004 17.1625L25.0629 15.4C21.6504 11.975 21.6504 6.425 25.0629 3.0125Z" fill="white"/>
<path d="M28.6004 6.54961L26.8379 4.78711C24.4004 7.22461 24.4004 11.1871 26.8379 13.6246L28.6004 11.8621C27.1379 10.3996 27.1379 8.01211 28.6004 6.54961Z" fill="white"/>
</g>
<defs>
<clipPath id="clip0_4048_1963">
<rect width="30" height="30" fill="white"/>
</clipPath>
</defs>
</svg>
